<?xml version="1.0" encoding="UTF-8"?>
<svg width="219px" height="31px" viewBox="0 0 219 31" version="1.1" xmlns="http://www.w3.org/2000/svg" xmlns:xlink="http://www.w3.org/1999/xlink">
    <!-- Generator: Sketch 47.1 (45422) - http://www.bohemiancoding.com/sketch -->
    <title>Logo - Directstartv</title>
    <desc>Created with Sketch.</desc>
    <defs>
        <polygon id="path-1" points="6.89269892e-21 0.208949093 6.89269892e-21 20.4766802 185.728353 20.4766802 185.728353 0.208949093 0 0.208949093"></polygon>
        <polygon id="path-3" points="8.91690436 0.0689794179 0.203461994 0.0689794179 0.203461994 8.71910023 8.91690436 8.71910023 8.91690436 0.0689794179"></polygon>
    </defs>
    <g id="Symbols" stroke="none" stroke-width="1" fill="none" fill-rule="evenodd">
        <g id="footer---directv" transform="translate(-490.000000, -541.000000)">
            <g id="footer">
                <g id="Logo---Directstartv" transform="translate(490.000000, 541.000000)">
                    <g id="Group-13" transform="translate(0.000000, 0.185557)">
                        <g id="Group-3" transform="translate(0.000000, 5.854342)">
                            <mask id="mask-2" fill="white">
                                <use xlink:href="#path-1"></use>
                            </mask>
                            <g id="Clip-2"></g>
                            <path d="M178.153138,9.11111204 L174.46407,9.11111204 L174.46407,3.84831336 L178.153138,3.84831336 C179.870905,3.84831336 180.997435,4.94002083 180.997435,6.4797127 C180.997435,8.01940458 179.870905,9.11111204 178.153138,9.11111204 L178.153138,9.11111204 Z M184.911809,6.4797127 C184.911809,3.14833772 182.489897,0.376943247 178.406671,0.376943247 L170.549696,0.376943247 L170.549696,20.308686 L174.46407,20.308686 L174.46407,12.35849 L177.280141,12.35849 L181.194515,20.308686 L185.728353,20.308686 L181.250714,11.7145124 C183.193787,11.0147913 184.911809,9.2791062 184.911809,6.4797127 L184.911809,6.4797127 Z M157.332168,13.5061955 L159.866479,6.2557205 L162.316619,13.5061955 L157.332168,13.5061955 Z M158.233138,0.376943247 L150.939683,20.308686 L155.022909,20.308686 L156.233865,16.7815724 L163.358468,16.7815724 L164.541197,20.308686 L168.624424,20.308686 L161.302742,0.376943247 L158.233138,0.376943247 Z M152.544035,0.376943247 L138.153949,0.376943247 L138.153949,3.84831336 L143.391678,3.84831336 L143.391678,20.308686 L147.306052,20.308686 L147.306052,3.84831336 L152.544035,3.84831336 L152.544035,0.376943247 Z M132.312268,8.66312763 L129.946555,8.32713933 C129.130012,8.21539776 128.482321,7.90740848 128.088162,7.54342114 C127.665777,7.15143478 127.49667,6.61970783 127.49667,6.11572537 C127.49667,4.74402765 128.510547,3.59632213 130.594501,3.59632213 C131.917856,3.59632213 133.438544,3.76431628 134.705699,4.96801985 L137.184065,2.53261369 C135.466298,0.880925709 133.466771,0.208949093 130.707154,0.208949093 C126.370395,0.208949093 123.723176,2.70035331 123.723176,6.2557205 C123.723176,7.9354075 124.202015,9.22310815 125.159439,10.1748205 C126.060408,11.0427903 127.327818,11.5745172 129.045586,11.8265085 L131.467244,12.1624968 C132.396694,12.3024919 132.847306,12.4984851 133.241465,12.8622179 C133.66385,13.2542042 133.860929,13.8421838 133.860929,14.5419049 C133.860929,16.1375948 132.622,17.0053101 130.312741,17.0053101 C128.454094,17.0053101 126.736326,16.5855792 125.469171,15.3258776 L122.934605,17.8452808 C124.905906,19.8327026 127.215165,20.4766802 130.256542,20.4766802 C134.452421,20.4766802 137.690877,18.2930107 137.690877,14.4299088 C137.690877,12.6662247 137.212038,11.2105299 136.141962,10.2028195 C135.297191,9.41910133 134.142689,8.91511886 132.312268,8.66312763 L132.312268,8.66312763 Z M74.6148612,3.84831336 L79.8528441,3.84831336 L79.8528441,20.308686 L83.7672179,20.308686 L83.7672179,3.84831336 L89.0049466,3.84831336 L89.0049466,0.376943247 L74.6148612,0.376943247 L74.6148612,3.84831336 Z M66.2665874,3.68031921 C68.1534616,3.68031921 69.2235379,4.8000257 69.6459231,6.50771173 L73.6164962,6.50771173 C72.9405782,2.44861661 70.0965351,0.208949093 66.2383606,0.208949093 C64.098208,0.208949093 62.2960143,0.936923761 60.8315253,2.39261856 C59.9585282,3.26033382 59.42349,4.24004518 59.198184,5.38800524 C58.972878,6.50771173 58.860225,8.15939971 58.860225,10.3428146 C58.860225,12.5264841 58.972878,14.1779175 59.198184,15.2978786 C59.42349,16.4175851 59.9585282,17.4252955 60.8315253,18.2930107 C62.2960143,19.7487055 64.098208,20.4766802 66.2383606,20.4766802 C70.0683082,20.4766802 72.9405782,18.2370127 73.6164962,14.1779175 L69.6459231,14.1779175 C69.2235379,15.8856036 68.1534616,17.0053101 66.2665874,17.0053101 C65.1965111,17.0053101 64.3517408,16.6695763 63.760249,15.9696007 C62.9437054,15.1018854 62.7745988,14.2059166 62.7745988,10.3428146 C62.7745988,6.4797127 62.9437054,5.58374388 63.760249,4.71602862 C64.3517408,4.01605298 65.1965111,3.68031921 66.2665874,3.68031921 L66.2665874,3.68031921 Z M43.7113212,20.308686 L56.9186773,20.308686 L56.9186773,16.8373159 L47.625695,16.8373159 L47.625695,11.9945026 L55.5388688,11.9945026 L55.5388688,8.52313251 L47.625695,8.52313251 L47.625695,3.84831336 L56.9186773,3.84831336 L56.9186773,0.376943247 L43.7113212,0.376943247 L43.7113212,20.308686 Z M33.7180085,9.11111204 L30.0289407,9.11111204 L30.0289407,3.84831336 L33.7180085,3.84831336 C35.435776,3.84831336 36.562306,4.94002083 36.562306,6.4797127 C36.562306,8.01940458 35.435776,9.11111204 33.7180085,9.11111204 L33.7180085,9.11111204 Z M40.4766798,6.4797127 C40.4766798,3.14833772 38.0547675,0.376943247 33.9715414,0.376943247 L26.1145669,0.376943247 L26.1145669,20.308686 L30.0289407,20.308686 L30.0289407,12.35849 L32.8450114,12.35849 L36.7593852,20.308686 L41.2932233,20.308686 L36.8155845,11.7145124 C38.758658,11.0147913 40.4766798,9.2791062 40.4766798,6.4797127 L40.4766798,6.4797127 Z M17.7937571,20.308686 L21.7081309,20.308686 L21.7081309,0.376943247 L17.7937571,0.376943247 L17.7937571,20.308686 Z M9.79997163,15.6056133 C9.12405364,16.4175851 8.22282966,16.8373159 6.87124798,16.8373159 L3.91429751,16.8373159 L3.91429751,3.84831336 L6.87124798,3.84831336 C8.22282966,3.84831336 9.12405364,4.26804421 9.79997163,5.08001595 C10.532089,5.97573024 10.644742,7.23543186 10.644742,10.2588176 C10.644742,13.2822033 10.532089,14.709899 9.79997163,15.6056133 L9.79997163,15.6056133 Z M12.5316161,2.28062246 C11.208007,0.964922787 9.32113281,0.376943247 7.2371795,0.376943247 L-7.62887116e-05,0.376943247 L-7.62887116e-05,20.308686 L7.2371795,20.308686 C9.32113281,20.308686 11.208007,19.7207065 12.5316161,18.4050068 C14.7844218,16.1655938 14.5591158,13.2542042 14.5591158,10.2588176 C14.5591158,7.26343089 14.7844218,4.52003544 12.5316161,2.28062246 L12.5316161,2.28062246 Z" id="Fill-1" fill="#FFFFFF" mask="url(#mask-2)"></path>
                        </g>
                        <g id="Group-6" transform="translate(101.463987, 0.000000)">
                            <mask id="mask-4" fill="white">
                                <use xlink:href="#path-3"></use>
                            </mask>
                            <g id="Clip-5"></g>
                            <path d="M4.5442897,3.16536622 C4.94124529,3.16536622 5.52968556,5.77487541 5.96631128,8.71910023 C6.9303463,8.31285982 7.94269751,7.9134919 8.91690436,7.55434076 C8.79967404,6.81745731 8.67430626,6.10959104 8.54563263,5.46510437 C8.34550191,4.46223018 8.14384541,3.64313141 7.94625765,3.03046182 C7.79724037,2.56771429 7.64618872,2.20449056 7.47148757,1.88682889 C7.28966614,1.55618585 7.08190655,1.27619559 6.83676548,1.03082231 C6.21679255,0.410516624 5.402792,0.0689285105 4.5442897,0.0689285105 C3.6855331,0.0689285105 2.87127825,0.410771161 2.25130531,1.03133138 C2.00616425,1.27670466 1.79865896,1.55669492 1.61683753,1.88733796 C1.44188208,2.20499963 1.29108473,2.56873243 1.14206745,3.03147997 C0.944479682,3.64440409 0.742568891,4.46401194 0.54243817,5.46764974 C0.425462146,6.05359299 0.311283374,6.69197077 0.203461994,7.35656583 C1.16876849,7.74371599 2.1752709,8.17464645 3.13828874,8.61295847 C3.57313439,5.71276848 4.15216572,3.16536622 4.5442897,3.16536622" id="Fill-4" fill="#74B5E3" mask="url(#mask-4)"></path>
                        </g>
                        <path d="M104.188918,11.932523 C104.191969,11.901724 104.195021,11.870416 104.198327,11.8393626 C103.246498,11.3873056 102.223212,10.9342304 101.228916,10.5213721 C101.186448,10.8871412 101.147541,11.2496013 101.112703,11.6041707 C101.096682,11.7441659 101.068964,11.9819031 101.042008,12.1641513 C100.943342,12.2471302 100.793307,12.3677805 100.565204,12.5439199 C100.547403,12.5571558 100.529603,12.5709007 100.51231,12.5843912 C100.305059,12.7325315 100.095774,12.8839808 99.8852172,13.0384845 C100.69464,13.7035886 101.54704,14.3722562 102.365618,14.9808532 C102.384181,14.9951073 102.401473,15.0085977 102.419528,15.0223427 C103.909447,13.876419 103.990059,13.6585356 104.188918,11.932523" id="Fill-7" fill="#6BACDD"></path>
                        <path d="M109.657801,15.061465 L109.657801,15.061465 C110.522152,14.4582133 111.422613,13.7933637 112.273487,13.1338593 C112.053012,12.9719741 111.833301,12.8123796 111.615878,12.6568578 C111.425156,12.4804639 111.151534,12.2231274 111.038373,12.0933137 C110.994634,11.9528095 110.931314,11.660347 110.88961,11.4600267 C110.864434,11.2098172 110.837225,10.9562987 110.808489,10.7002349 C109.823602,11.0754219 108.812522,11.4870076 107.870102,11.8996114 C107.854845,11.9039385 107.840604,11.9082656 107.825601,11.9125927 C107.826109,11.9174289 107.826618,11.9220106 107.827126,11.9268468 C108.169408,13.6032248 108.28791,13.8022724 109.657801,15.061465" id="Fill-9" fill="#6BACDD"></path>
                        <path d="M109.613249,15.1101645 L109.613647,15.109766 C109.636763,15.093824 109.659879,15.0774834 109.682995,15.0615413 C109.659879,15.0778819 109.636365,15.0942225 109.613249,15.1101645" id="Fill-11" fill="#C0D72F"></path>
                    </g>
                    <path d="M103.79181,1.26606503 C103.562943,1.49540251 103.368916,1.75681159 103.199301,2.06530995 L103.199301,2.06530995 C103.036297,2.36209962 102.895163,2.70139691 102.756063,3.13334551 L102.756063,3.13334551 C102.571953,3.70554378 102.383266,4.47068079 102.196613,5.40737547 L102.196613,5.40737547 C102.196613,5.40737547 102.332152,5.77467178 103.135727,3.24788698 L103.135727,3.24788698 C103.269995,2.82611984 103.401211,2.49318597 103.555823,2.20275971 L103.555823,2.20275971 C103.716538,1.90087931 103.90014,1.64532456 104.117054,1.42107782 L104.117054,1.42107782 C104.66557,0.85422482 105.385735,0.541908416 106.145316,0.541908416 L106.145316,0.541908416 C106.658231,0.541908416 107.223276,0.684703447 107.70542,0.951712337 L107.70542,0.951712337 C107.188437,0.57296188 106.57355,0.367805383 105.931962,0.367805383 L105.931962,0.367805383 C105.130422,0.367805383 104.370332,0.686994276 103.79181,1.26606503" id="Fill-14"></path>
                    <g id="Group-48" transform="translate(92.563637, 5.785362)">
                        <path d="M9.84878531,9.44463135 L9.7897998,9.49006613 C9.79777081,9.48368932 9.80574183,9.47771106 9.81411139,9.47133425 C9.82606792,9.46216758 9.83682879,9.45379801 9.84878531,9.44463135" id="Fill-16" fill="#5EBA46"></path>
                        <path d="M9.87214953,9.42263939 L9.87214953,9.42263939 C9.85700461,9.43419736 9.84265678,9.44535678 9.82751185,9.45691475 L9.86099011,9.43100895 L9.87214953,9.42263939 Z" id="Fill-18" fill="#5EBA46"></path>
                        <path d="M15.3972236,6.91550481 C15.3972236,6.91550481 16.8278912,5.72529168 18.2588131,5.28977956 C18.1410742,4.24567044 17.9381462,2.85513701 17.775397,1.83215443 C16.9924205,2.07396419 15.7773956,2.41911582 14.8235324,2.77393984 C14.8881235,4.16727317 15.3972236,6.91550481 15.3972236,6.91550481" id="Fill-20" fill="#4085C6"></path>
                        <path d="M11.5592656,6.84777262 C11.5442622,6.8434455 10.3671273,5.69752174 8.63003337,5.20270259 C8.74777229,4.15859347 9.11344951,1.58701023 9.11344951,1.58701023 L12.052345,2.64486433 C12.052345,2.64486433 11.6609839,5.81028145 11.5592656,6.84777262" id="Fill-22" fill="#4085C6"></path>
                        <path d="M13.1839354,21.3390247 L13.1821554,21.3390247 C12.7907943,21.3308796 12.2651651,18.7816955 11.8898246,15.8797238 C10.9173978,16.2979274 9.90123218,16.7077313 8.93007688,17.0735004 C9.02467488,17.7419135 9.12613887,18.3838548 9.23116299,18.972598 C9.41069576,19.9757267 9.59506015,20.7958436 9.77967883,21.4100404 C9.91928717,21.8745697 10.0629642,22.2403388 10.2310537,22.5608004 C10.4065177,22.8950069 10.6086828,23.1788152 10.8489923,23.4290247 C11.4557418,24.0600209 12.2616049,24.4171358 13.1183272,24.4349534 L13.1287533,24.4349534 C13.146554,24.4354624 13.1661347,24.4354624 13.1839354,24.4354624 C13.7522863,24.4354624 15.1730365,24.2631412 16.0887553,22.6666876 C16.2682881,22.3533531 16.4254428,21.9942019 16.5831061,21.5362906 C16.7926458,20.9276936 17.0105772,20.1131765 17.2310516,19.1159021 C17.3785431,18.4482526 17.523746,17.7126418 17.6605571,16.9467412 C16.6886389,16.5768995 15.6828993,16.1683683 14.7277647,15.7544918 C14.2303623,18.7094071 13.5836883,21.3390247 13.1839354,21.3390247" id="Fill-24" fill="#4085C6"></path>
                        <path d="M9.81899295,9.45114749 C9.81441562,9.454711 9.8098383,9.45827451 9.80526098,9.46183802 C9.79992077,9.46565607 9.79508915,9.46947412 9.78974894,9.47354671 L9.81899295,9.45114749 Z M26.5018084,2.10674851 C26.221066,1.60531141 25.3686668,0.438770186 23.5184112,0.438770186 C22.9078472,0.438770186 21.8639634,0.555602484 19.1913155,1.46607989 C18.748841,1.61676556 18.2872943,1.7811962 17.8173558,1.95453562 C16.8431489,2.31368676 15.8305434,2.71305468 14.8665084,3.11929509 C14.6582402,3.20711022 14.4522607,3.29517988 14.2493327,3.38299501 C13.9563841,3.47666447 13.7333667,3.5881515 13.4691535,3.5881515 C13.2939438,3.5881515 13.0432082,3.45681062 12.8501978,3.38935842 C12.584713,3.26412642 12.3133795,3.13838534 12.0384859,3.01340787 C11.075468,2.57484131 10.0689656,2.14391085 9.10391342,1.75676069 C8.68178255,1.58749385 8.26753484,1.42637218 7.86854488,1.2769592 C5.16945026,0.266194373 4.13700969,0.129762757 3.48321543,0.129762757 L3.48321543,0.129762757 C2.2417438,0.129762757 1.18412795,0.704506394 0.581955723,1.70712605 C0.139226899,2.4440095 0.0123333417,3.31859725 0.224415961,4.17002217 C0.308079248,4.50702862 0.441075902,4.82927195 0.630271907,5.15584241 C0.812347633,5.46943149 1.04579109,5.78607502 1.3651865,6.15235318 C1.78833455,6.63775448 2.38618376,7.23311558 3.14220489,7.92214615 C3.64672757,8.38183924 4.21151833,8.87360395 4.8060617,9.37275021 C5.60124437,10.0401452 6.45008343,10.7210306 7.28213898,11.3573721 C7.50159618,11.5251117 7.71978189,11.6900514 7.93567895,11.850664 C8.04731476,11.9366974 8.23651077,12.0830559 8.37891636,12.1998882 C8.40358305,12.3543919 8.43257276,12.5781296 8.4656312,12.8690649 C8.49233225,13.2073441 8.52259344,13.5527502 8.55565188,13.9009563 C9.55681407,13.5102426 10.5892546,13.0790576 11.5512553,12.6468545 C11.5494752,12.6226735 11.5474409,12.598238 11.5454065,12.574057 C11.3295094,10.6520512 11.2008358,10.4608942 9.85612012,9.42263939 C9.83806512,9.40863987 9.82051872,9.39540397 9.80195513,9.38089538 C8.98363155,8.77255292 8.13123235,8.10388528 7.32155482,7.43852661 C4.99703777,5.52822945 3.02650034,3.64644038 3.23298846,3.30281598 C3.26426683,3.25063598 3.35021878,3.22620046 3.48296114,3.22620046 C4.21278981,3.226455 6.36031705,3.9651202 8.66525333,4.92166874 C9.65954954,5.3345271 10.6828355,5.7873477 11.6346643,6.2394047 C11.6468705,6.24551358 11.6595853,6.25136792 11.6720458,6.25722226 C12.4946924,6.54815759 12.9577648,6.69095262 13.4510985,6.69095262 C13.9174768,6.69095262 14.412082,6.56317525 15.2619382,6.31271124 C15.2769417,6.30838412 15.2911822,6.30431153 15.30644,6.29972987 C16.2488599,5.88712605 17.2599396,5.47554037 18.2448269,5.10060796 C20.5695982,4.21532968 22.7463695,3.53520789 23.5184112,3.53520789 C23.6722601,3.53520789 23.7704183,3.56218877 23.8027138,3.61996858 C23.9952157,3.96410206 22.0394274,5.72854975 19.7098244,7.53423237 C18.858951,8.19373669 17.9584899,8.85858629 17.0941388,9.46158349 C17.0943931,9.46183802 17.0946474,9.46183802 17.0946474,9.46209256 C17.0964275,9.46361978 17.0982075,9.46540153 17.0997333,9.46667422 L17.0498913,9.49263695 L17.0496371,9.49289149 C15.4641033,10.647724 15.4521514,10.6573964 15.1859038,12.5743115 C15.211842,12.5855111 15.2372716,12.5962017 15.2639726,12.6074013 C16.1873203,13.0217869 17.178565,13.436427 18.1471773,13.8159411 C18.183033,13.5451141 18.2168543,13.276578 18.248387,13.0126236 C18.2783939,12.7972856 18.3101809,12.5689663 18.3384077,12.3877362 C18.4841191,12.2777764 18.6689921,12.142872 18.8439476,12.0153492 C19.1239271,11.8201196 19.408484,11.617763 19.6940581,11.4113338 C20.5545948,10.79001 21.4273376,10.1284694 22.2398124,9.4832191 C22.7773935,9.05610669 23.2887822,8.63586676 23.7513461,8.24006236 C24.5282195,7.57470369 25.1441237,6.9981783 25.5820209,6.52601291 C25.912351,6.16940714 26.155712,5.86014517 26.3471967,5.55241043 C26.5465645,5.23194885 26.6892244,4.9137781 26.7833138,4.57957155 C27.0213346,3.73501912 26.9213964,2.85686786 26.5018084,2.10674851 L26.5018084,2.10674851 Z" id="Fill-26" fill="#4085C6"></path>
                        <path d="M9.03609276,17.8016278 C9.0510962,17.7973007 10.6699427,16.5920699 11.9170088,16.2049197 C11.8076617,15.1597925 11.5398883,12.5569012 11.5398883,12.5569012 L8.53335015,13.6117009 C8.53335015,13.6117009 8.94276623,16.763373 9.03609276,17.8016278" id="Fill-28" fill="#231F20"></path>
                        <path d="M17.5143879,17.743568 C16.5734938,16.7501117 14.6914513,16.050136 14.6914513,16.050136 L15.2038571,12.5181862 L18.1877629,13.5213149 C18.1877629,13.5213149 17.7463056,16.5307011 17.5143879,17.743568" id="Fill-30" fill="#231F20"></path>
                        <path d="M17.1280327,9.46965631 C17.1252429,9.46726501 17.1228516,9.46487371 17.1200617,9.4624824 C17.1196632,9.46208385 17.1196632,9.4616853 17.1192646,9.4616853 C17.0961487,9.47762733 17.0730327,9.49396791 17.0499168,9.51030849 L17.1280327,9.46965631 Z" id="Fill-32" fill="#5EBA46"></path>
                        <path d="M9.87378627,9.42808647 L9.83990946,9.45399227 C9.82835149,9.46315893 9.81719207,9.4715285 9.80523555,9.48069517 C9.82835149,9.46315893 9.85106888,9.4456227 9.87378627,9.42808647" id="Fill-34" fill="#5EBA46"></path>
                        <path d="M15.1859038,12.5743879 L15.3082589,12.6261995 C15.2664111,12.6082647 15.226556,12.5915256 15.1859038,12.5743879" id="Fill-36" fill="#5EBA46"></path>
                        <path d="M26.7619275,14.4444683 C26.671144,14.1094981 26.5315356,13.7900547 26.3352193,13.4678114 C26.1467862,13.1585494 25.9069854,12.8475057 25.580724,12.4888636 C25.1489299,12.0149165 24.5409088,11.4353366 23.7731901,10.7659054 C23.305286,10.3581377 22.7862685,9.92440738 22.239787,9.48304092 C21.4273122,10.1285457 20.5545693,10.7898318 19.6940327,11.4114102 C22.0165154,13.2415283 23.9679806,15.0311751 23.7721729,15.3742905 C23.7401316,15.4305431 23.6457879,15.4567603 23.4980421,15.4567603 C22.7267633,15.4567603 20.5049817,14.7399853 18.1471519,13.8157629 C17.1787938,13.4362488 16.1872949,13.0218632 15.2639472,12.6074777 L15.1858784,12.5743879 C14.3304276,12.2121823 13.8879531,12.0301886 13.4472587,12.0301886 C12.991815,12.0301886 12.53688,12.2244001 11.6257385,12.613332 L11.5456354,12.5741334 C11.5474154,12.5983143 11.5494498,12.6227498 11.5512299,12.6469308 C10.5892292,13.079134 9.55678864,13.5100644 8.55562645,13.9010326 C6.27027094,14.7934379 4.14791898,15.475596 3.4002896,15.475596 C3.25406957,15.475596 3.16023446,15.4496333 3.1281932,15.3938898 C2.92933396,15.0469564 4.92682673,13.2145474 7.28211355,11.3574484 C6.450058,10.7208524 5.60121894,10.0402215 4.80603627,9.37282657 C4.20284685,9.85873694 3.63017292,10.3377748 3.11852996,10.7852502 C2.3520827,11.4559541 1.74507885,12.0370611 1.31455622,12.5117719 C0.988549127,12.870923 0.749511164,13.1824758 0.561586637,13.4919923 C0.366033239,13.8144902 0.226933488,14.1341882 0.136658512,14.4694129 C-0.0909361445,15.3149834 0.0184110091,16.1903348 0.444864908,16.9343453 C0.727387437,17.4273827 1.58029524,18.5722883 3.4002896,18.5722883 C4.04772647,18.5722883 5.06694366,18.4465472 7.71924787,17.5149432 C8.10984608,17.377748 8.51595632,17.2296077 8.92994973,17.0735768 C9.90135933,16.7075532 10.9172707,16.2980038 11.8899517,15.8798001 C12.2047698,15.7441321 12.5150106,15.6079551 12.8178768,15.4720325 C12.830083,15.4664327 12.8420349,15.4610874 12.8539868,15.4554876 C13.0576776,15.3684361 13.275609,15.2755303 13.4495473,15.2047691 C13.6011076,15.2661124 13.7859805,15.3437461 13.9660219,15.4201071 C13.9708535,15.4221433 13.9756851,15.4241796 13.980771,15.4262159 L13.9973003,15.4330884 C14.019424,15.4432699 14.0415477,15.4526877 14.0639257,15.4623601 C14.2816029,15.5595931 14.5033487,15.6570806 14.7276375,15.7543136 C15.6827722,16.1684446 16.688766,16.5769759 17.6604299,16.9468176 C18.1672412,17.1395018 18.6646436,17.3220045 19.1406852,17.488726 C21.8196905,18.4266933 22.8465365,18.553198 23.4980421,18.553198 C25.323631,18.553198 26.1765388,17.4042198 26.4585527,16.9101643 C26.8834809,16.1651357 26.9913022,15.2895298 26.7619275,14.4444683" id="Fill-38" fill="#74B5E3"></path>
                        <path d="M19.6941598,11.4113847 C19.7951152,11.4910547 19.7679056,11.4612739 19.8673352,11.5406893 L22.6755227,9.84394836 C22.5725329,9.75944221 22.3451926,9.56803069 22.2396598,9.48301547 C21.4274393,10.1285203 20.5546965,10.7898064 19.6941598,11.4113847" id="Fill-40" fill="#4085C6"></path>
                        <path d="M17.0100178,9.38407709 C17.037736,9.40978529 17.0651999,9.43498441 17.0941897,9.46171075 C17.9582865,8.85845902 18.8590019,8.19360943 19.7098753,7.5341051 C19.6302807,7.47556169 19.5509405,7.41803641 19.4716002,7.36000207 L17.0100178,9.38407709 Z" id="Fill-42" fill="#4085C6"></path>
                        <path d="M9.93922396,9.35829253 L7.59588903,7.23851175 C7.50459687,7.3049458 7.41330471,7.37137986 7.32150396,7.43857752 C8.13118149,8.10393618 8.98358069,8.77260382 9.80215857,9.38094629 C9.82046786,9.39520034 9.83801427,9.40869078 9.85606926,9.42269029 C9.88455038,9.40054561 9.91176002,9.37967361 9.93922396,9.35829253" id="Fill-44" fill="#4085C6"></path>
                        <path d="M4.30985448,9.77687797 L7.1099045,11.4937273 C7.16737533,11.4481653 7.22459187,11.4028578 7.28231699,11.3572957 C6.45000715,10.7209542 5.60116808,10.0400688 4.8062397,9.37292839 C4.63789594,9.50834186 4.47260374,9.64299172 4.30985448,9.77687797" id="Fill-46" fill="#4085C6"></path>
                    </g>
                    <path d="M95.5261819,16.907848 C94.8133911,17.5429168 94.2491089,18.0927159 93.8491018,18.5412094 L93.8491018,18.5412094 C93.5472528,18.8799976 93.3257612,19.1732237 93.1528401,19.4639045 L93.1528401,19.4639045 C92.9725445,19.7665485 92.8451423,20.0661381 92.7635134,20.3794727 L92.7635134,20.3794727 C92.556771,21.1723542 92.6661181,21.9896712 93.0714655,22.6820107 L93.0714655,22.6820107 C93.3959468,23.2361369 93.8834317,23.6635038 94.4713634,23.9180404 L94.4713634,23.9180404 C93.9976105,23.6367775 93.5889573,23.2211192 93.3295756,22.7782256 L93.3295756,22.7782256 C92.9455891,22.1222847 92.8502282,21.3423846 93.061548,20.5820838 L93.061548,20.5820838 C93.144957,20.2817306 93.2728677,19.9935952 93.4516376,19.7021508 L93.4516376,19.7021508 C93.6232872,19.421906 93.8440159,19.1403885 94.1400161,18.8110181 L94.1400161,18.8110181 C95.7964983,16.9674096 95.5671236,16.9075935 95.530505,16.9075935 L95.530505,16.9075935 C95.5277077,16.9075935 95.5261819,16.907848 95.5261819,16.907848" id="Fill-49"></path>
                    <path d="M95.2034807,6.05568019 C94.4032121,6.22672878 93.7224625,6.69202168 93.286854,7.36578005 L93.286854,7.36578005 C92.9382145,7.90463403 92.7757196,8.53257581 92.8125925,9.17298989 L92.8125925,9.17298989 C92.8507368,8.62268177 93.0384071,8.07059189 93.3168609,7.63940689 L93.3168609,7.63940689 C93.7298371,7.00153818 94.3831228,6.56577153 95.156436,6.41304957 L95.156436,6.41304957 C95.4623537,6.35272439 95.7766632,6.3374522 96.1174195,6.36621483 L96.1174195,6.36621483 C96.444698,6.39421386 96.7951175,6.4647205 97.2218257,6.58129826 L97.2218257,6.58129826 C99.7774976,7.27949214 99.5435455,6.96564852 99.5435455,6.96564852 L99.5435455,6.96564852 C98.6560535,6.61362441 97.9122386,6.35603337 97.3319358,6.20025697 L97.3319358,6.20025697 C96.8942928,6.08240653 96.5326844,6.01622701 96.1959968,5.99204604 L96.1959968,5.99204604 C96.0998731,5.98517355 96.0060379,5.98186457 95.9139829,5.98186457 L95.9139829,5.98186457 C95.668079,5.98186457 95.4336183,6.00630009 95.2034807,6.05568019" id="Fill-51"></path>
                    <path d="M116.109385,6.30334429 C115.77168,6.31199854 115.407783,6.36188771 114.965054,6.45937523 L114.965054,6.45937523 C114.378648,6.58944343 113.62339,6.81267203 112.721403,7.12422482 L112.721403,7.12422482 C112.721403,7.12422482 112.473211,7.42712337 115.057872,6.84525271 L115.057872,6.84525271 C115.489412,6.74827427 115.842629,6.6935489 116.171179,6.68056753 L116.171179,6.68056753 C116.512444,6.66707709 116.825736,6.69660334 117.128856,6.77067349 L117.128856,6.77067349 C117.894541,6.9585215 118.527483,7.42330532 118.910706,8.07924613 L118.910706,8.07924613 C119.169834,8.52239435 119.332074,9.08237486 119.345552,9.63395567 L119.345552,9.63395567 C119.41116,8.99608696 119.277147,8.36127268 118.953428,7.80714651 L118.953428,7.80714651 C118.548589,7.11429789 117.889964,6.61896967 117.097832,6.41126781 L117.097832,6.41126781 C116.816581,6.33796127 116.527701,6.30181707 116.216698,6.30181707 L116.216698,6.30181707 C116.181351,6.30181707 116.145495,6.30232615 116.109385,6.30334429" id="Fill-53"></path>
                    <path d="M117.87496,18.7333845 C118.172232,19.0614822 118.393978,19.342236 118.566899,19.6217172 L118.566899,19.6217172 C118.747194,19.9126525 118.876122,20.1997698 118.961057,20.500123 L118.961057,20.500123 C119.175428,21.2594057 119.083373,22.0398149 118.702184,22.6972829 L118.702184,22.6972829 C118.444582,23.1411947 118.037709,23.5586348 117.564974,23.841934 L117.564974,23.841934 C118.151888,23.5851066 118.637593,23.1551943 118.959531,22.6000499 L118.959531,22.6000499 C119.362081,21.9061832 119.468123,21.0881025 119.25782,20.2962392 L119.25782,20.2962392 C119.17492,19.9829046 119.046246,19.6840787 118.864679,19.3819437 L118.864679,19.3819437 C118.690486,19.0922811 118.467723,18.7998185 118.164603,18.4625575 L118.164603,18.4625575 C117.762561,18.0155913 117.196245,17.4685921 116.480402,16.8365778 L116.480402,16.8365778 C116.480402,16.8365778 116.478877,16.8363232 116.476588,16.8363232 L116.476588,16.8363232 C116.440224,16.8363232 116.208306,16.8946121 117.87496,18.7333845" id="Fill-55"></path>
                    <path d="M104.491631,18.3915418 C104.491631,18.3915418 101.425588,19.4743405 101.619107,19.5860821 L101.619107,19.5860821 C101.619107,19.5860821 105.563233,18.0036281 106.007997,18.0616624 L106.007997,18.0616624 C106.472086,18.0616624 110.435793,19.588882 110.435793,19.588882 L110.435793,19.588882 C110.416467,19.4743405 109.66248,19.2228584 107.462314,18.3589611 L107.462314,18.3589611 C106.748251,18.0568262 106.379014,17.9048679 106.011557,17.9048679 L106.011557,17.9048679 C105.631385,17.9048679 105.251976,18.0670077 104.491631,18.3915418" id="Fill-57"></path>
                    <path d="M104.797803,9.21040677 C105.410402,9.50185118 105.727254,9.64846426 106.042581,9.64846426 L106.042581,9.64846426 C106.368842,9.64846426 106.694341,9.49217878 107.346609,9.1785897 L107.346609,9.1785897 C107.346609,9.1785897 109.977298,8.13371697 109.811243,8.02604798 L109.811243,8.02604798 C109.811243,8.02604798 106.427076,9.55301303 106.045632,9.49701498 L106.045632,9.49701498 C105.647405,9.49701498 102.246709,8.02324808 102.246709,8.02324808 L102.246709,8.02324808 C102.262984,8.13371697 102.910166,8.37654488 104.797803,9.21040677" id="Fill-59"></path>
                    <g id="Group-65" transform="translate(187.415935, 6.294436)" fill="#4085C6">
                        <polygon id="Fill-61" points="0.01243506 3.5937004 5.25041801 3.5937004 5.25041801 20.0540731 9.16453752 20.0540731 9.16453752 3.5937004 14.4025205 3.5937004 14.4025205 0.122330289 0.01243506 0.122330289"></polygon>
                        <polygon id="Fill-63" points="27.4844579 0.122432103 23.4574311 13.1116892 19.4304043 0.122432103 15.375405 0.122432103 21.9931964 20.0541749 24.9219201 20.0541749 31.5676841 0.122432103"></polygon>
                    </g>
                </g>
            </g>
        </g>
    </g>
</svg>