<?xml version="1.0" encoding="UTF-8"?>
<svg width="23px" height="29px" viewBox="0 0 23 29" version="1.1" xmlns="http://www.w3.org/2000/svg" xmlns:xlink="http://www.w3.org/1999/xlink">
    <!-- Generator: Sketch 47.1 (45422) - http://www.bohemiancoding.com/sketch -->
    <title>Page 1</title>
    <desc>Created with Sketch.</desc>
    <defs></defs>
    <g id="High-Fidelity" stroke="none" stroke-width="1" fill="none" fill-rule="evenodd">
        <g id="bundles" transform="translate(-305.000000, -1320.000000)" fill="#009FDB">
            <g id="Check-Availability" transform="translate(131.000000, 1179.000000)">
                <g id="form" transform="translate(149.000000, 124.000000)">
                    <path d="M42.9660154,30.0619472 C42.9162805,30.1858475 42.8636763,30.3078416 42.8072463,30.4288826 C41.7063834,32.7925185 39.2980664,34.4365797 36.5014347,34.4365797 L36.5004782,34.4365797 C32.667065,34.4365797 29.5528951,31.3543223 29.5528951,27.5543965 C29.5528951,23.7516114 32.667065,20.6703071 36.5004782,20.6703071 L36.5014347,20.6703071 C37.2206779,20.6703071 37.9140972,20.7789581 38.5663895,20.9800578 C38.7835015,21.0467733 38.9967877,21.1239727 39.2043353,21.2107029 C40.8666287,21.9083567 42.1989502,23.227418 42.9028904,24.8743384 C43.2548604,25.6968456 43.4499743,26.6022706 43.4499743,27.5524903 C43.4499743,28.4388537 43.2739892,29.2832817 42.9660154,30.0619472 M36.5014347,17 C30.5638526,17 25.7510444,21.7682541 25.7510444,27.645892 C25.7510444,30.8310819 27.1665762,33.6884127 29.4056032,35.6393653 C29.4056032,35.6393653 31.0497243,37.1633386 31.8407005,38.4928837 L31.8473956,38.4928837 L35.9084416,45.3016799 C36.01365,45.5218411 36.2336313,45.677193 36.5014347,45.677193 C36.7634993,45.677193 36.9892193,45.5218411 37.0963406,45.3007268 L41.1545173,38.4900245 C41.9493193,37.1633386 43.5953532,35.6393653 43.5953532,35.6393653 C45.8362931,33.6884127 47.2489556,30.8310819 47.2489556,27.645892 C47.2489556,21.7682541 42.4390168,17 36.5014347,17" id="Page-1"></path>
                </g>
            </g>
        </g>
    </g>
</svg>