<?xml version="1.0" encoding="UTF-8"?>
<svg width="106px" height="86px" viewBox="0 0 106 86" version="1.1" xmlns="http://www.w3.org/2000/svg" xmlns:xlink="http://www.w3.org/1999/xlink">
    <!-- Generator: Sketch 47.1 (45422) - http://www.bohemiancoding.com/sketch -->
    <title>TV</title>
    <desc>Created with Sketch.</desc>
    <defs></defs>
    <g id="High-Fidelity" stroke="none" stroke-width="1" fill="none" fill-rule="evenodd">
        <g id="home" transform="translate(-556.000000, -539.000000)" fill="#009FDB">
            <g id="2" transform="translate(0.000000, 469.000000)">
                <g id="Never-miss-a-show" transform="translate(479.000000, 70.000000)">
                    <path d="M180.330523,61.8778421 L180.330523,4.37845293 C180.330523,3.36517319 179.458494,2.54167159 178.390703,2.54167159 L92.6186273,2.54167159 C91.5472772,2.54167159 90.675248,3.36517319 90.675248,4.37845293 L90.675248,22.8106553 C91.3301597,22.7530441 91.99219,22.7055996 92.6755761,22.6954329 L92.6933726,22.6954329 L92.7111691,22.6988218 L92.7111691,22.6954329 C93.544046,22.7089885 94.355567,22.7632108 95.1457322,22.8445443 L95.1457322,9.85490799 C95.1457322,8.28923829 96.4804707,7.01501359 98.1213092,7.01501359 L172.89158,7.01501359 C174.52886,7.01501359 175.860039,8.28923829 175.860039,9.85490799 L175.860039,55.7744414 C175.860039,57.3367222 174.5253,58.6109469 172.888021,58.6109469 L124.695063,58.6109469 C123.958287,58.6109469 123.360324,58.0416125 123.360324,57.3401111 C123.360324,56.6386098 123.958287,56.0692753 124.695063,56.0692753 L172.888021,56.0692753 C173.055308,56.0692753 173.190562,55.9371084 173.190562,55.7744414 L173.190562,9.85490799 C173.190562,9.69224101 173.055308,9.55668519 172.89158,9.55668519 L98.1213092,9.55668519 C97.954022,9.55668519 97.8152092,9.69224101 97.8152092,9.85490799 L97.8152092,23.0377113 C97.8152092,23.1190448 97.7831754,23.1902116 97.7653789,23.2681562 C101.812306,24.1255468 105.033475,25.8199945 106.7455,27.4974977 C107.838205,28.5683887 108.404135,29.693502 108.389897,30.7576152 C108.354304,32.7536746 107.667359,34.9361233 106.873634,37.4608504 C105.898386,40.5583008 104.798561,44.0658076 104.734494,47.9257595 C104.70246,50.0031525 105.378727,52.9955471 105.97669,55.6388856 C106.378891,57.4011112 106.752618,59.0684478 106.884312,60.3087835 C106.994651,61.3830634 107.062277,62.531899 107.087193,63.7180124 L178.390703,63.7180124 C179.458494,63.7180124 180.330523,62.8945108 180.330523,61.8778421 Z M178.390703,0 C180.932045,0 183,1.96217047 183,4.37845293 L183,61.8778421 C183,64.2941246 180.932045,66.259684 178.390703,66.259684 L136.839404,66.259684 L136.839404,73.6203649 L156.009808,73.6203649 C156.746583,73.6203649 157.344546,74.1896993 157.344546,74.8912007 C157.344546,75.5927021 156.746583,76.1620365 156.009808,76.1620365 L114.992404,76.1620365 C114.255628,76.1620365 113.657665,75.5927021 113.657665,74.8912007 C113.657665,74.1896993 114.255628,73.6203649 114.992404,73.6203649 L134.169927,73.6203649 L134.169927,66.259684 L107.076515,66.259684 C106.934143,70.9363597 106.119062,75.7350357 104.456868,78.3275407 C99.8974012,85.4340545 94.3021774,85.9966111 92.6969319,86 C91.721683,85.9966111 89.7498293,85.8136107 87.4398419,84.607164 C86.7956081,84.2648855 86.5606941,83.4922174 86.9166244,82.8788273 C87.2725546,82.2654372 88.0840757,82.045159 88.7283094,82.3772708 C90.5150794,83.3159948 91.9779528,83.4549395 92.6933726,83.4583284 C93.9533658,83.4549395 98.3455453,82.9804941 102.175355,77.0058715 C103.958566,74.2269772 104.876866,66.8459629 104.225513,60.5595618 C104.111616,59.4649486 103.752126,57.8653899 103.367721,56.1709422 C102.741284,53.3988257 102.029424,50.2539307 102.065017,47.8884817 C102.132643,43.6760846 103.292976,39.9889664 104.318055,36.7356267 C105.054831,34.3871222 105.691946,32.3605627 105.72042,30.7169484 C105.72398,30.5847815 105.663472,30.083225 104.830595,29.2665012 C102.905012,27.3788864 98.2850371,25.3150491 92.6933726,25.2404934 C87.1017081,25.3150491 82.4817332,27.3788864 80.5561505,29.2665012 C79.7232737,30.083225 79.6663248,30.5813926 79.6698841,30.7169484 C79.6983586,32.3605627 80.3354737,34.3871222 81.0722494,36.7356267 C82.0937693,39.9889664 83.2541019,43.6760846 83.3217287,47.8884817 C83.3573217,50.2539307 82.6490205,53.3920479 82.0225832,56.1641644 C81.6381785,57.8586121 81.2751296,59.4615597 81.1647913,60.5595618 C80.8836063,63.2808449 80.880047,66.3274619 81.161232,69.1504118 C81.3463157,71.0109154 81.6524157,72.7460299 82.0510576,74.1659771 C82.2397007,74.8437562 81.8161436,75.5418686 81.1042831,75.7214801 C80.9868261,75.7519801 80.8729284,75.7655357 80.7590308,75.7655357 C80.1681865,75.7655357 79.6307318,75.3893683 79.4705632,74.8200339 C79.0363283,73.2645309 78.7017538,71.3870828 78.5024329,69.3876345 C78.2070107,66.4087954 78.21057,63.1859558 78.5059922,60.3121724 C78.6341271,59.0684478 79.0114131,57.3977223 79.4136143,55.6287189 C80.0080179,52.9887694 80.6842854,49.9997636 80.6522517,47.9257595 C80.5917435,44.0691965 79.4883597,40.5583008 78.5166701,37.4642393 C77.7193863,34.9361233 77.0360002,32.7536746 77.0004071,30.7576152 C76.9826106,29.6968909 77.5485397,28.5683887 78.6412457,27.4974977 C80.4102191,25.7623833 83.784438,23.9967687 88.0342454,23.1732671 C88.0318725,23.1416374 88.0223811,16.8766994 88.005771,4.37845293 C88.005771,1.96217047 90.0772852,0 92.6186273,0 L178.390703,0 Z M96.79013,49.7998187 C95.9572532,48.949206 97.1638568,48.9322615 97.1460603,46.841313 C97.1247044,45.089254 95.9287787,44.9062537 96.5943683,44.1640856 C97.6194475,43.0220278 99.1250325,44.8215313 99.1499477,46.8819797 C99.1819814,49.0203728 97.6585998,50.6775427 96.79013,49.7998187 Z M92.7787959,53.1446585 C90.5399945,53.1751586 88.7959362,51.7179336 89.7213549,50.894432 C90.6111806,50.1048193 90.6289771,51.2468771 92.8250668,51.2333215 C94.661667,51.2129881 94.8574286,50.0743193 95.6440345,50.7080427 C96.8399602,51.6840446 94.9464112,53.1175474 92.7787959,53.1446585 Z M88.5645815,44.1640856 C89.4010176,45.0146983 88.1979733,45.0316428 88.2122106,47.1225913 C88.240685,48.8746503 89.4294921,49.0576506 88.7639025,49.7998187 C87.7388233,50.9418765 86.2332383,49.1389841 86.2047638,47.0819246 C86.1762894,44.9435315 87.7067896,43.2829728 88.5645815,44.1640856 Z M94.9179368,46.9531466 C94.9357333,48.1358711 93.9498065,49.1017063 92.7076098,49.1186507 C91.4689725,49.1322063 90.4474526,48.1934823 90.4332154,47.0073689 C90.4154189,45.8280333 91.4084643,44.8588092 92.6471017,44.8418647 C93.8892983,44.8283091 94.9108182,45.7738109 94.9179368,46.9531466 Z M92.5723563,40.8158569 C94.8182763,40.7887457 96.5587753,42.2459708 95.6440345,43.0660835 C94.743531,43.859085 94.7292937,42.7136383 92.533204,42.7271939 C90.6930445,42.7509162 90.4972829,43.8895851 89.7213549,43.2524727 C88.5183106,42.2764708 90.4083003,40.842968 92.5723563,40.8158569 Z M92.7147284,68.0591875 C93.4230297,68.0591875 93.9996367,68.6081885 93.9996367,69.2791898 L93.9996367,69.5570792 C93.9996367,70.2280805 93.4230297,70.7770816 92.7147284,70.7770816 L92.4264249,70.7770816 C91.7252423,70.7770816 91.1486353,70.2280805 91.1486353,69.5570792 L91.1486353,69.2791898 C91.1486353,68.6081885 91.7252423,68.0591875 92.4264249,68.0591875 L92.7147284,68.0591875 Z M92.7147284,69.9298577 C92.9318459,69.9298577 93.109811,69.7638019 93.109811,69.5570792 L93.109811,69.2791898 C93.109811,69.0758561 92.9318459,68.9064113 92.7147284,68.9064113 L92.4264249,68.9064113 C92.2128668,68.9064113 92.0384609,69.0758561 92.0384609,69.2791898 L92.0384609,69.5570792 C92.0384609,69.7638019 92.2128668,69.9298577 92.4264249,69.9298577 L92.7147284,69.9298577 Z M92.6720168,63.5282342 C93.3767587,63.5282342 93.9498065,64.0772353 93.9498065,64.7482366 L93.9498065,65.0227371 C93.9498065,65.6937384 93.3767587,66.2461284 92.6720168,66.2461284 L92.3765947,66.2461284 C91.675412,66.2461284 91.098805,65.6937384 91.098805,65.0227371 L91.098805,64.7482366 C91.098805,64.0772353 91.675412,63.5282342 92.3765947,63.5282342 L92.6720168,63.5282342 Z M92.6720168,65.3989045 C92.8891343,65.3989045 93.0599808,65.2294597 93.0599808,65.0227371 L93.0599808,64.7482366 C93.0599808,64.5449029 92.8891343,64.3754581 92.6720168,64.3754581 L92.3765947,64.3754581 C92.1665958,64.3754581 91.9886307,64.5449029 91.9886307,64.7482366 L91.9886307,65.0227371 C91.9886307,65.2294597 92.1665958,65.3989045 92.3765947,65.3989045 L92.6720168,65.3989045 Z M92.7147284,58.9938921 C93.4230297,58.9938921 93.9996367,59.5428932 93.9996367,60.2138945 L93.9996367,60.4917839 C93.9996367,61.1661741 93.4230297,61.7151752 92.7147284,61.7151752 L92.4264249,61.7151752 C91.7252423,61.7151752 91.1486353,61.1661741 91.1486353,60.4917839 L91.1486353,60.2138945 C91.1486353,59.5428932 91.7252423,58.9938921 92.4264249,58.9938921 L92.7147284,58.9938921 Z M92.7147284,60.8679513 C92.9318459,60.8679513 93.109811,60.6985065 93.109811,60.4917839 L93.109811,60.2138945 C93.109811,60.0105607 92.9318459,59.841116 92.7147284,59.841116 L92.4264249,59.841116 C92.2128668,59.841116 92.0384609,60.0105607 92.0384609,60.2138945 L92.0384609,60.4917839 C92.0384609,60.6985065 92.2128668,60.8679513 92.4264249,60.8679513 L92.7147284,60.8679513 Z M87.7779756,68.0591875 C88.4862769,68.0591875 89.0628839,68.6081885 89.0628839,69.2791898 L89.0628839,69.5570792 C89.0628839,70.2280805 88.4862769,70.7770816 87.7779756,70.7770816 L87.4861128,70.7770816 C86.7849302,70.7770816 86.2083231,70.2280805 86.2083231,69.5570792 L86.2083231,69.2791898 C86.2083231,68.6081885 86.7849302,68.0591875 87.4861128,68.0591875 L87.7779756,68.0591875 Z M87.7779756,69.9298577 C87.9986524,69.9298577 88.1730582,69.7638019 88.1730582,69.5570792 L88.1730582,69.2791898 C88.1730582,69.0758561 87.9986524,68.9064113 87.7779756,68.9064113 L87.4861128,68.9064113 C87.2761139,68.9064113 87.0981488,69.0758561 87.0981488,69.2791898 L87.0981488,69.5570792 C87.0981488,69.7638019 87.2761139,69.9298577 87.4861128,69.9298577 L87.7779756,69.9298577 Z M87.7317047,63.5282342 C88.4400059,63.5282342 89.0130537,64.0772353 89.0130537,64.7482366 L89.0130537,65.0227371 C89.0130537,65.6937384 88.4400059,66.2461284 87.7317047,66.2461284 L87.4398419,66.2461284 C86.7350999,66.2461284 86.1620522,65.6937384 86.1620522,65.0227371 L86.1620522,64.7482366 C86.1620522,64.0772353 86.7350999,63.5282342 87.4398419,63.5282342 L87.7317047,63.5282342 Z M87.7317047,65.3989045 C87.9452628,65.3989045 88.123228,65.2294597 88.123228,65.0227371 L88.123228,64.7482366 C88.123228,64.5449029 87.9452628,64.3754581 87.7317047,64.3754581 L87.4398419,64.3754581 C87.2262837,64.3754581 87.0518779,64.5449029 87.0518779,64.7482366 L87.0518779,65.0227371 C87.0518779,65.2294597 87.2262837,65.3989045 87.4398419,65.3989045 L87.7317047,65.3989045 Z M87.7779756,58.9938921 C88.4862769,58.9938921 89.0628839,59.5428932 89.0628839,60.2138945 L89.0628839,60.4917839 C89.0628839,61.1661741 88.4862769,61.7151752 87.7779756,61.7151752 L87.4861128,61.7151752 C86.7849302,61.7151752 86.2083231,61.1661741 86.2083231,60.4917839 L86.2083231,60.2138945 C86.2083231,59.5428932 86.7849302,58.9938921 87.4861128,58.9938921 L87.7779756,58.9938921 Z M87.7779756,60.8679513 C87.9986524,60.8679513 88.1730582,60.6985065 88.1730582,60.4917839 L88.1730582,60.2138945 C88.1730582,60.0105607 87.9986524,59.841116 87.7779756,59.841116 L87.4861128,59.841116 C87.2761139,59.841116 87.0981488,60.0105607 87.0981488,60.2138945 L87.0981488,60.4917839 C87.0981488,60.6985065 87.2761139,60.8679513 87.4861128,60.8679513 L87.7779756,60.8679513 Z M97.9433441,68.0591875 C98.6516453,68.0591875 99.2282523,68.6081885 99.2282523,69.2791898 L99.2282523,69.5570792 C99.2282523,70.2280805 98.6516453,70.7770816 97.9433441,70.7770816 L97.6585998,70.7770816 C96.9502986,70.7770816 96.3772509,70.2280805 96.3772509,69.5570792 L96.3772509,69.2791898 C96.3772509,68.6081885 96.9502986,68.0591875 97.6585998,68.0591875 L97.9433441,68.0591875 Z M97.9433441,69.9298577 C98.1640208,69.9298577 98.3384267,69.7638019 98.3384267,69.5570792 L98.3384267,69.2791898 C98.3384267,69.0758561 98.1640208,68.9064113 97.9433441,68.9064113 L97.6585998,68.9064113 C97.4379231,68.9064113 97.2670765,69.0758561 97.2670765,69.2791898 L97.2670765,69.5570792 C97.2670765,69.7638019 97.4379231,69.9298577 97.6585998,69.9298577 L97.9433441,69.9298577 Z M97.8970731,63.5282342 C98.6053744,63.5282342 99.1819814,64.0772353 99.1819814,64.7482366 L99.1819814,65.0227371 C99.1819814,65.6937384 98.6053744,66.2461284 97.8970731,66.2461284 L97.6123289,66.2461284 C96.9040277,66.2461284 96.3309799,65.6937384 96.3309799,65.0227371 L96.3309799,64.7482366 C96.3309799,64.0772353 96.9040277,63.5282342 97.6123289,63.5282342 L97.8970731,63.5282342 Z M97.8970731,65.3989045 C98.1141906,65.3989045 98.2921557,65.2294597 98.2921557,65.0227371 L98.2921557,64.7482366 C98.2921557,64.5449029 98.1141906,64.3754581 97.8970731,64.3754581 L97.6123289,64.3754581 C97.3952114,64.3754581 97.2208056,64.5449029 97.2208056,64.7482366 L97.2208056,65.0227371 C97.2208056,65.2294597 97.3952114,65.3989045 97.6123289,65.3989045 L97.8970731,65.3989045 Z M97.9433441,58.9938921 C98.6516453,58.9938921 99.2282523,59.5428932 99.2282523,60.2138945 L99.2282523,60.4917839 C99.2282523,61.1661741 98.6516453,61.7151752 97.9433441,61.7151752 L97.6585998,61.7151752 C96.9502986,61.7151752 96.3772509,61.1661741 96.3772509,60.4917839 L96.3772509,60.2138945 C96.3772509,59.5428932 96.9502986,58.9938921 97.6585998,58.9938921 L97.9433441,58.9938921 Z M97.9433441,60.8679513 C98.1640208,60.8679513 98.3384267,60.6985065 98.3384267,60.4917839 L98.3384267,60.2138945 C98.3384267,60.0105607 98.1640208,59.841116 97.9433441,59.841116 L97.6585998,59.841116 C97.4379231,59.841116 97.2670765,60.0105607 97.2670765,60.2138945 L97.2670765,60.4917839 C97.2670765,60.6985065 97.4379231,60.8679513 97.6585998,60.8679513 L97.9433441,60.8679513 Z M92.6898133,29.9103913 L92.6648982,29.9103913 C92.1879516,29.9171691 91.7465981,30.1001694 91.415583,30.4221145 C91.0810085,30.7508374 90.8994841,31.1812271 90.9066027,31.638728 C90.910162,32.0996178 91.1023643,32.5232297 91.4404981,32.838397 C91.7786318,33.1535643 92.2377819,33.2958979 92.7076098,33.323009 C93.191675,33.3162312 93.6437064,33.129842 93.9782809,32.8011191 C94.3128553,32.4757852 94.4872612,32.0487843 94.4801426,31.5980612 C94.4659053,30.6627261 93.6650622,29.9103913 92.6898133,29.9103913 Z M92.686254,35.8646806 C91.5116841,35.8646806 90.4083003,35.4342909 89.5718642,34.6548449 C88.7211908,33.8618434 88.2478036,32.8011191 88.2371257,31.669228 C88.2193292,30.5407259 88.6678013,29.466446 89.5006781,28.6497222 C90.3299956,27.8397762 91.4404981,27.3822753 92.6328645,27.3687197 C95.1386135,27.3111085 97.1140265,29.2190566 97.1496196,31.5607834 C97.1674161,32.6892856 96.7225032,33.7601765 95.8931857,34.5701226 C95.0603089,35.3902353 93.9426879,35.8477361 92.7467622,35.8646806 L92.7432029,35.8646806 L92.686254,35.8646806 Z" id="TV"></path>
                </g>
            </g>
        </g>
    </g>
</svg>